<?xml version="1.0" encoding="UTF-8" standalone="no"?><!DOCTYPE svg PUBLIC "-//W3C//DTD SVG 1.1//EN" "http://www.w3.org/Graphics/SVG/1.1/DTD/svg11.dtd"><svg width="100%" height="100%" viewBox="0 0 1855 1474" version="1.1" xmlns="http://www.w3.org/2000/svg" xmlns:xlink="http://www.w3.org/1999/xlink" xml:space="preserve" xmlns:serif="http://www.serif.com/" style="fill-rule:evenodd;clip-rule:evenodd;stroke-linejoin:round;stroke-miterlimit:2;"><g><path d="M1656.28,532.71c0.01,0.15 0.01,0.27 0.01,0.31c0,8.5 0.03,16.25 -0.07,24c0,0.63 -26,110.69 -24.33,110.38c-20.2,43.36 -52.68,75.12 -93.69,99.19c-4.91,3.03 -10.6,6.9 -15.77,9.41c-12.99,6.33 -26.19,12.21 -39.29,18.29c-2.34,1.09 -25.76,12.07 -27.31,8.92c4.59,10.67 8.49,19.45 11.18,25.06c15.04,31.46 26.46,64.32 36.1,97.77c6.88,23.84 12.83,47.95 14.42,72.82c0.5,7.85 -0.12,15.81 -0.79,23.68c-0.53,6.29 1.53,11.25 6.38,14.8c4.89,3.58 10.99,4.93 15.95,1.27c10.46,-7.7 22.75,-10.33 34.76,-13.16c28.97,-6.82 58.16,-12.7 87.28,-18.87c3.71,-0.79 26.19,-3.46 33.21,-4.34c3.27,-0.41 6.56,-0.68 10.13,-0.37c-2.8,1.63 -5.53,3.37 -8.4,4.85c-30.86,15.98 -61.85,31.71 -92.57,47.95c-13.91,7.36 -27.31,15.71 -40.92,23.65c-0.81,0.47 -1.41,1.28 -2.11,2.25c-5.07,2.27 20.38,7.17 30.57,7.16c26.35,-0.02 50.98,8.3 76.23,13.42c25.61,5.18 51,11.5 76.43,17.54c25.27,6 75.87,18.71 75.87,18.71c-0,-0 8.15,1.78 11.92,2.73l-0,1.59c-28.74,5.87 -57.43,11.97 -86.22,17.52c-20.5,3.95 -41.1,7.47 -61.74,10.61c-19,2.88 -38.08,5.31 -57.19,7.34c-11.8,1.25 -23.74,1.17 -35.58,2.1c-5.76,0.46 -11.41,2.11 -17.16,2.77c-9.05,1.03 -14.57,5.77 -16.84,14.86c-3.56,-1.19 -3.45,-1.15 -0.22,0.26c0.07,0.64 0.14,1.28 0.12,2.46l-0.01,0.24l0.08,0.36c0.47,0.35 0.77,1.01 0.89,1.83c-0.16,-0.14 -0.3,-0.28 -0.42,-0.46l-0.41,-1.14l-0.06,-0.23l-0.01,-0.02l0.01,0.1l0.06,0.15l0.13,0.59c0.03,0.09 0.07,0.18 0.11,0.26c0.05,0.11 0.11,0.2 0.17,0.29l0.23,0.62l0.07,0.3c1.61,6.36 6.3,10.04 11.63,13.18c20.34,11.98 40.66,23.97 60.97,35.98c0.69,0.42 2.1,1.47 3.43,2.47l1.96,1.4c0.26,0.09 0.54,0.22 0.85,0.38c-0.06,0.02 -0.13,0.03 -0.21,0.04l0.41,0.25l18.07,10.85c-0.16,0.39 -0.33,0.79 -0.49,1.18c-7.65,-1.53 -15.32,-2.96 -22.94,-4.61c-35.66,-7.7 -71.3,-15.5 -106.98,-23.16c-6.3,-1.36 -12.68,-2.89 -19.07,-3.14c-9.7,-0.37 -18.94,7.03 -17.72,3.2l-3.41,10.68c-2.94,20.44 -12.88,38.21 -21.73,56.36c-3.41,7 -7.54,13.64 -12.03,20.62c-16.15,25.09 -16.58,27.03 -25.3,40.18c-1.1,1.65 -4.27,2.27 -6.6,2.7c-28.56,5.24 -57.12,10.54 -85.74,15.45c-24.36,4.19 -48.8,7.89 -73.21,11.79c-4.78,0.77 -49.67,7.33 -52.48,7.72c-18.43,2.56 -36.96,4.44 -55.31,7.41c-12.11,1.96 -23.88,6.05 -36,7.95c-23.78,3.73 -47.65,7.02 -71.57,9.7c-23.11,2.59 -46.32,4.18 -69.48,6.25c-0.76,0.06 -81.25,6.97 -91.31,8.05c-14.2,1.53 -28.44,3.17 -42.7,3.67c-28.96,1.01 -57.9,0.31 -86.78,-2.6c-9.19,-0.92 -18.568,0.23 -27.821,-0.27c-13.282,-0.71 -26.53,-2.06 -39.789,-3.18c-1.146,-0.1 -71.172,-9.33 -82.602,-10.97c-20.192,-2.89 -40.417,-5.6 -60.545,-8.9c-29.137,-4.77 -58.21,-9.94 -87.275,-15.13c-2.086,-0.38 -4.285,-1.99 -5.753,-3.63c-8.972,-10.03 -26.734,-30.67 -26.734,-30.67l-0.143,-0.3c-0,0 -48.352,-68.92 -66.528,-107.1c-0.946,-1.99 -1.698,-3.72 1.669,-4.97c-0,0 4.678,-5.95 4.71,-6.05c-0.779,-4.19 -0.748,-8.65 -1.856,-12.8c-1.055,-3.96 -6.559,-6.68 -10.452,-5.95c-10.915,2.05 -21.901,3.82 -32.697,6.38c-11.917,2.83 -23.713,6.21 -35.459,9.7c-31.068,9.22 -62.067,18.68 -93.119,27.96c-17.512,5.23 -53.007,15.34 -53.007,15.34l-0.394,-0.1c-0,0 -15.532,6.39 -23.299,9.59c-0.241,-0.36 -0.482,-0.71 -0.724,-1.07c0.606,-0.8 1.065,-1.79 1.837,-2.37c29.542,-22.06 60.975,-41.08 93.318,-58.72c16.203,-8.83 31.891,-18.61 47.815,-27.96c5.301,-3.11 9.214,-7.39 11.771,-13.66c13.418,-7.17 13.523,-7.23 0.244,-0.26c-0.907,-4.73 -0.099,-9.75 -4.502,-13.73c-3.845,-3.47 -8.076,-5.27 -13.004,-5.35c-33.084,-0.51 -65.969,-3.54 -98.721,-7.97c-35.822,-4.84 -71.593,-10.06 -107.372,-15.21c-6.204,-0.89 -12.34,-2.25 -19.809,-3.64c2.548,-1.77 6.396,-4.2 6.396,-4.2l0.359,-0.02c-0,0 112.361,-53 172.287,-70.33c13.396,-3.88 26.752,-7.9 40.072,-12.02c2.123,-0.66 6.851,-3.74 6.851,-3.74c-0,0 -0.317,-6.09 -0.291,-9.09c0.078,-9.06 -4.178,-14.96 -12.66,-18.21c-12.263,-4.71 -24.495,-9.51 -36.58,-14.66c-12.09,-5.14 -23.988,-10.74 -35.952,-16.18c-1.121,-0.51 -2.111,-1.31 -4.039,-2.52c6.627,-0.36 12.161,-0.65 17.954,-0.69l0.552,0.26c33.794,0.08 66.669,6.46 99.296,14.52c2.748,0.68 5.559,1.21 8.201,2.19c3.032,1.12 6.692,0.6 8.594,4.82c0.757,1.69 5.048,1.94 7.798,2.52c3.088,0.65 6.253,0.93 9.384,1.37c7.107,1 7.317,1.05 8.874,-5.64c5.577,-23.97 10.712,-48.05 16.55,-71.96c7.638,-31.28 17.873,-61.75 30.659,-91.31c1.436,-3.32 4.375,-5.97 6.502,-9.02c1.033,-1.47 1.971,-3.07 2.662,-4.73c3.524,-8.46 7.01,-16.93 10.506,-25.4c-25.491,-4.9 -93.569,-35.71 -111.268,-46.97c-14.103,-8.98 -24.835,-22.56 -34.614,-36.3c-19.958,-28.02 -29.369,-59.78 -32.412,-93.68c-0.565,-6.29 -0.79,-12.6 -0.44,-19.08c0.322,0.87 1.35,-15.2 1.35,-24.07c0.475,-0.22 17.278,-104.47 21.378,-135.81c12.808,-97.94 39.578,-191.93 80.706,-281.73c8.723,-19.04 34.769,-64.48 38.447,-71.36c4.684,-8.77 12.172,-70.83 17.183,-79.36c-7.767,-10.49 83.779,110.24 107.986,151.16c56.577,95.65 113.339,191.18 169.563,287.04c18.96,32.32 36.494,65.48 54.78,98.2c1.636,2.93 35.29,38.35 48.737,37.48c22.27,-1.45 44.55,-2.88 66.84,-3.83c28.62,-1.21 57.27,-1.87 85.91,-2.95c4.11,-0.16 6.51,0.86 7.66,5.03c1.27,4.65 2.96,9.2 4.67,13.71c3.09,8.1 11.17,11.94 18.98,9.35c3.26,-1.08 4.46,-2.5 3.12,-6.16c-9.4,-25.63 18.51,-25.99 34.06,-9.85c6.76,7.01 0.56,-1.96 -0,-12.08c3.58,0 33.54,0.2 37.09,0.35c28.95,1.22 57.94,2.04 86.85,3.88c22.75,1.45 45.43,4.06 68.13,6.35c11.38,1.14 58.01,-37.92 60.94,-44.76c4.99,-11.63 9.55,-23.45 14.19,-35.22c27.22,-69.02 60.01,-135.46 93.5,-201.57c41.63,-82.17 85.25,-163.28 131.81,-242.77c5.73,-9.78 11.85,-19.31 17.81,-28.95c0.23,-0.37 17.63,-33.78 17.66,-34c1.82,2.34 14.67,34.21 15.64,35.74c16.67,26.26 29.79,54.31 40.84,83.3c33.94,89.09 64.48,179.26 85.18,272.49c7.05,31.74 12.46,63.74 15.06,96.18c0.09,1.16 1.26,16.92 1.45,20.77l-0,0.01c0.02,0.35 0.03,0.6 0.03,0.73l-0.01,-0.01Zm-20.62,722.99l-0.19,-0.14l-0.08,-0.02l0.27,0.16l0.39,0.28l0.06,0l-0.45,-0.28Z" style="fill-rule:nonzero;stroke:#000;stroke-width:47px;"/></g><g><path d="M886.127,509.238l100.847,93.943l-64.006,38.866l-36.841,-132.809Z" style="stroke:#000;stroke-width:10.66px;stroke-linecap:round;stroke-miterlimit:1.5;"/></g><path d="M918.822,567.284l12.281,21.478l-24.562,0l12.281,-21.478Z"/><g><g><path d="M435.844,974.11c6.014,-16.75 18.107,-27.017 31.978,-37.301c7.136,-5.29 14.774,-9.764 21.87,-13.036c1.719,-0.792 34.1,-14.492 39.784,-15.777c10.716,-2.424 21.687,-4.536 32.583,-4.789c20.339,-0.47 40.712,0.541 60.829,0.931c-20.824,32.239 -24.728,67.632 -23.726,104.142c0.541,19.72 2.505,39.23 9.308,57.95c5.46,15.03 12.662,29.05 24.307,40.29c17.009,16.43 38.118,17.48 55.56,2.05c6,-5.3 11.066,-12.07 15.223,-18.97c9.791,-16.26 14.38,-34.3 15.776,-53.15c2.398,-32.39 -3.025,-63.66 -14.441,-93.87c-2.725,-7.217 -7.31,-13.727 -10.98,-20.451c48.485,9.787 90.788,51.631 97.008,96.401c3.574,25.72 -3.028,48.87 -18.127,69.73c-15.931,22.01 -37.527,36.8 -62.315,46.82c-72.71,29.39 -145.488,28.53 -217.823,-1.34c-18.502,-7.64 -34.742,-19.12 -47.675,-34.67c-26.467,-31.83 -29.808,-67.56 -17.157,-105.74c2.139,-6.45 5.198,-12.6 8.018,-19.22Z" style="fill:#fefefe;fill-rule:nonzero;"/></g><g><path d="M1258.5,913.764c-8.68,15.109 -13.12,31.236 -15.7,47.926c-3.98,25.84 -3.3,51.68 3.94,76.75c5.78,20.01 14.3,39.18 29.47,54.25c11.65,11.57 26.33,14.75 41.96,11.61c8.76,-1.76 15.85,-7.45 21.62,-14.47c10.06,-12.24 16.13,-26.38 18.98,-41.77c7.06,-38.17 3.45,-75.28 -13.02,-110.634c-4.09,-8.763 -10.16,-16.599 -15.22,-24.699c31,6.731 61.74,16.242 86.04,39.143c26.33,24.81 30.62,55.33 19.41,88.56c-11.91,35.3 -36.67,59.16 -69.32,75.61c-29.19,14.7 -60.28,22.67 -92.65,26.01c-39.42,4.07 -78.51,2.28 -117.06,-7.29c-25.11,-6.23 -48.77,-15.8 -68.71,-32.85c-15.3,-13.1 -27.08,-28.52 -29.59,-49.31c-2.03,-16.73 2.38,-32.5 8.9,-47.54c12.84,-29.63 32.04,-53.74 61.09,-69.456c10.55,-5.705 21.92,-7.396 33.08,-10.238c31.14,-7.928 62.65,-13.929 94.73,-16.548c1.61,-0.131 3.24,-0.017 5.51,-0.017c-1.26,1.8 -2.26,3.22 -3.46,4.963Z" style="fill:#fefefe;fill-rule:nonzero;"/></g><g><path d="M317.43,708.334c2.84,-5.64 19.69,-96.14 18.25,-116.21c-0.85,-11.93 2.04,-40.94 1.96,-41.45c-7.72,-49.67 -1.62,-98.93 -1.96,-148.4c-0.18,-28.31 0.5,-56.63 0.84,-84.95c0.32,-25.65 0.47,-51.31 1.11,-76.95c0.73,-29.13 1.87,-58.25 2.93,-87.36c0.3,-8.29 0.95,-16.57 1.12,-25.09c4.68,-8.77 9.69,-17.3 14.7,-25.83c0.39,0.05 0.78,0.09 1.17,0.14c0.9,6.62 1.88,13.23 2.71,19.86c5.34,42.55 10.53,85.12 15.99,127.66c6.31,49.13 12.71,98.25 19.33,147.34c4.63,34.43 9.32,68.86 14.66,103.18c5.86,37.71 5.91,75.61 4.84,113.57c-0.4,13.95 -1.65,27.88 -2.53,41.82c-0.05,0.79 -0.31,1.57 -0.53,2.64l-0.05,0c-0.53,2.21 -12.59,52.58 -14.93,56.77c-1.54,2.76 -3.1,5.52 -4.56,8.32c-5.69,10.91 -5.69,10.97 -17.4,8.05c-20.12,-5.01 -39.44,-12.08 -57.65,-23.11Z" style="fill:#7d6530;fill-rule:nonzero;"/></g><g><path d="M618.693,1385.98c-0.18,-0.19 -3.4,-2.5 -4.32,-3.38c-29.95,-28.82 -55.48,-60.85 -70.57,-100.07c-13.76,-35.76 -14.64,-72.48 -6.64,-109.64c0.14,-0.64 0.4,-1.24 0.78,-2.39c5.4,0.87 10.73,1.82 16.1,2.58c60.54,8.47 119.32,3 175.48,-22.54c21.16,-9.62 40.13,-22.39 55.59,-39.98c42.54,-48.41 41.4,-114.1 -2.5,-161.873c-25.12,-27.333 -56.77,-43.089 -91.89,-52.801c-36.72,-10.156 -74.14,-14.5 -112.24,-12.447c-1.96,0.106 -3.93,0.014 -6.45,0.014c0.7,-1.584 1.23,-2.911 1.85,-4.192c15.21,-31.205 41.28,-48.775 73.52,-58.676c36.03,-11.069 72.88,-13.766 110.25,-10.628c43.4,3.644 84.93,14.627 124.49,32.862c21.01,9.684 40.43,21.83 57,38.195c4.58,4.525 9.77,7.524 16.55,6.246c7.63,-1.436 12.55,-7.069 12.03,-14.773c-0.25,-3.829 0.83,-6.582 3.74,-8.576c12.2,-8.36 23.97,-17.531 36.85,-24.696c32.04,-17.83 65.79,-31.496 102.32,-37.124c26.02,-4.008 52.04,-4.684 76.67,6.105c10.84,4.746 21.29,11.216 30.5,18.651c20.5,16.541 35.62,37.605 47.71,61.88c-2.06,0.352 -3.56,0.711 -5.08,0.855c-47.88,4.524 -94.86,13.98 -141.34,26.094c-2.54,0.663 -4.94,1.912 -7.36,2.992c-1.21,0.54 -2.27,1.414 -3.47,1.965c-37.58,17.162 -55.85,49.81 -68.79,86.447c-6.76,19.12 -9.47,38.83 -4.35,58.96c5.95,23.35 20.22,40.98 38.6,55.64c23.87,19.03 51.72,29.34 81.12,35.77c43.36,9.49 87.15,11.22 131.18,5.88c5.7,-0.69 11.22,-2.92 17.84,-4.72c-0,4.73 0.2,9.15 -0.04,13.55c-1.62,30.55 -9.74,59.77 -18.5,88.82c-9.97,33.1 -39.95,95.67 -39.95,95.67l-0.25,0.23c-0,0 -17.51,32.66 -30.04,46.56c-1.72,1.92 -5.23,2.67 -8.04,3.06c-18.43,2.56 -36.96,4.45 -55.31,7.42c-12.12,1.96 -23.88,6.05 -36,7.95c-23.78,3.73 -47.65,7.02 -71.58,9.7c-23.1,2.59 -46.31,4.17 -69.47,6.24c-0.76,0.07 -81.25,6.98 -91.31,8.06c-14.2,1.53 -28.44,3.17 -42.7,3.66c-28.96,1.02 -57.9,0.31 -86.78,-2.59c-9.19,-0.93 -18.57,0.23 -27.82,-0.27c-13.28,-0.72 -26.53,-2.06 -39.79,-3.19c-1.15,-0.09 -2.48,-0.2 -3.37,-0.82c-8.33,-5.86 -17.09,-11.25 -24.73,-17.93c-9.49,-8.31 -18.01,-17.75 -27.01,-26.63c-4.07,-4.02 -8.28,-7.9 -12.48,-12.12Zm289.34,-247.04c1.67,12.07 8.38,17.66 21.1,16.3c12.22,-1.3 24.37,-3.37 36.5,-5.41c9.65,-1.61 15.17,-7.38 15.13,-15.08c-0.05,-8.75 -5.86,-15.23 -15.17,-17.06c-15.46,-3.05 -30.76,-1.43 -46.13,0.96c-12.83,2 -16.55,7.78 -11.43,20.29Z" style="fill:#fecb63;fill-rule:nonzero;"/></g><g><path d="M1494.46,647.814c0.39,-0.13 0.21,-0.15 -0.26,-0.05c-1.04,-11.54 -2.45,-46.32 -2.61,-57.46c-0.37,-26.97 -0.81,-53.95 -0.38,-80.92c0.56,-35.46 1.79,-70.91 2.99,-106.36c0.74,-21.96 1.82,-43.9 2.96,-65.85c1.56,-30.24 3.23,-60.49 5.02,-90.72c1.53,-25.74 3.71,-51.46 4.83,-77.22c1.44,-33.1 2.14,-66.23 3.04,-99.35c0.06,-2.38 -0.83,-4.78 -1.28,-7.17c0.3,-2.28 0.6,-4.56 1.08,-8.25c1.82,2.35 3.06,3.7 4.03,5.23c16.67,26.26 29.8,54.31 40.84,83.3c33.94,89.09 64.48,179.26 85.18,272.49c7.05,31.74 12.46,63.74 15.06,96.18c0.08,0.96 0.77,13.19 1.1,19.64c0.04,0.8 0.38,2.79 0.38,3.24c-0,8.08 0.03,15.51 -0.06,22.93c-0.01,0.63 -0.82,1.53 -1.47,1.81c-5.49,2.38 -6.76,7.2 -7.88,12.45c-5.75,27.11 -19.89,49.23 -41.12,66.75c-26.1,21.52 -56.53,34.17 -89.05,42.27c-5.76,1.44 -11.63,2.43 -17.81,3.15c-1.77,-12.35 -3.18,-24.22 -4.59,-36.09Z" style="fill:#fecb63;fill-rule:nonzero;"/></g><g><path d="M276.479,775.149c-13.82,-9.92 -24.959,-22.778 -34.739,-36.51c-19.958,-28.026 -29.369,-59.779 -32.412,-93.682c-0.484,-5.388 -0.163,-10.866 -0,-16.377c0.027,-0.921 0.911,-5.016 0.911,-7.865l-0,-18.914c0.475,-0.215 0.949,-0.43 1.424,-0.645c14.097,54.282 42.165,100.199 87.071,134.981c-0.736,2.192 -2.103,3.295 -2.999,4.865c-6.458,11.311 -12.795,22.838 -19.256,34.147Z" style="fill:#d41c12;fill-rule:nonzero;"/></g><g><path d="M1537.36,767.45c-4.91,3.032 -9.61,6.496 -14.78,9.01c-12.99,6.322 -26.19,12.206 -39.3,18.288c-2.33,1.085 -3.93,1.541 -5.44,-1.636c-10.32,-21.777 -20.9,-43.433 -31.38,-65.14c-0.48,-0.996 -0.73,-2.102 -1.32,-3.825c23.5,-0.82 45.9,-5.868 68.79,-10.131c4.53,9.037 8.88,17.589 12.68,26.372c3.86,8.901 7.19,18.032 10.75,27.062Z" style="fill:#6a0e09;fill-rule:nonzero;"/></g><g><path d="M1537.7,767.426c-3.9,-9.006 -7.23,-18.137 -11.09,-27.038c-3.8,-8.783 -8.15,-17.335 -12.27,-26.354c27.44,-7.267 54.27,-16.094 80.2,-27.403c11.39,-4.971 22.2,-11.283 33.27,-17.003c1.31,-0.675 2.56,-1.459 4.23,-1.774c-20.31,43.59 -53.02,75.451 -94.34,99.572Z" style="fill:#d51c12;fill-rule:nonzero;"/></g><g><path d="M276.506,775.218c6.309,-11.596 12.771,-22.905 19.229,-34.216c0.896,-1.57 1.77,-3.153 2.729,-5.093c8.629,5.323 16.822,11.678 25.821,16.544c13.699,7.406 27.956,13.781 42.633,20.914c-0.665,1.595 -1.593,4.167 -2.784,6.611c-3.865,7.925 -7.711,15.865 -11.861,23.641c-0.706,1.322 -3.069,2.86 -4.343,2.616c-25.491,-4.894 -48.646,-15.416 -70.186,-29.703c-0.409,-0.271 -0.726,-0.682 -1.238,-1.314Z" style="fill:#6a0e09;fill-rule:nonzero;"/></g><g><path d="M1425.42,661.794c0.45,-5.46 3.56,-37.04 4.12,-41.72c5.16,-42.92 10.23,-85.85 15.61,-128.74c5.25,-41.74 10.7,-83.45 16.32,-125.15c5.36,-39.87 10.93,-79.72 16.63,-119.55c5.59,-39.01 11.14,-78.03 17.34,-116.94c3.56,-22.31 8.38,-44.41 12.98,-66.79c0.8,2.2 1.69,4.6 1.63,6.98c-0.9,33.12 -1.6,66.25 -3.04,99.35c-1.12,25.76 -3.3,51.48 -4.83,77.22c-1.79,30.23 -3.46,60.48 -5.02,90.72c-1.14,21.95 -2.22,43.89 -2.96,65.85c-1.2,35.45 -2.43,70.9 -2.99,106.36c-0.43,26.97 0.01,53.95 0.38,80.92c0.16,11.14 6.22,81.74 7.58,93.72c-20.14,4.95 -40.99,5.56 -61.48,4.18c-0.66,-0.04 -1.32,-0.35 -1.97,-0.3c-10.08,0.69 -12.34,-2.91 -11.41,-13.65c0.3,-3.48 0.87,-6.95 0.86,-10.43c0,-0.8 0.07,-1.47 0.25,-2.03Z" style="fill:#7f6631;fill-rule:nonzero;"/></g><g><path d="M242.763,1069.37c2.12,-0.65 6.85,-3.73 6.85,-3.73c0,0 -0.31,-6.1 -0.29,-9.09c0.08,-9.06 -4.18,-14.96 -12.66,-18.21c-12.26,-4.71 -24.49,-9.52 -36.58,-14.66c-12.09,-5.14 -23.99,-10.74 -35.95,-16.18c-1.12,-0.51 -2.11,-1.31 -4.04,-2.53c6.63,-0.35 12.16,-0.64 17.95,-0.68l0.56,0.26c33.79,0.07 66.66,6.45 99.29,14.52c2.75,0.68 5.56,1.21 8.2,2.18c3.04,1.12 6.69,0.61 8.6,4.83c0.76,1.68 5.05,1.94 7.8,2.51c3.08,0.65 6.25,0.93 9.38,1.38c7.11,1 7.32,1.05 8.87,-5.64c5.58,-23.98 10.72,-48.057 16.55,-71.966c7.64,-31.281 17.88,-61.745 30.66,-91.309c1.44,-3.319 4.38,-5.973 6.51,-9.015c1.03,-1.477 1.96,-3.07 2.66,-4.73c7.8,-18.736 15.42,-37.552 23.37,-56.224c3.65,-8.566 8,-16.833 11.91,-25.289c5.31,-11.455 10.6,-22.917 15.65,-34.483c1.02,-2.333 1.31,-5.143 1.33,-7.736c0.12,-28.665 -0.6,-57.354 0.35,-85.99c1.3,-39.27 3.75,-78.504 5.9,-117.744c0.6,-10.953 -6.17,-66.077 -10.23,-78.745c-13.59,-42.458 -18.25,-86.552 -23.05,-130.51c-4.08,-37.384 -6.86,-74.942 -9.06,-112.491c-1.6,-27.25 -1.94,-54.618 -1.63,-81.919c0.19,-16.701 2.66,-33.376 4.18,-50.922c30.6,38.324 55.89,78.528 80.1,119.449c56.58,95.646 113.34,191.184 169.56,287.036c18.96,32.324 36.5,65.484 54.78,98.205c1.64,2.927 35.29,38.354 48.74,37.478c22.27,-1.451 44.54,-2.883 66.84,-3.828c28.62,-1.213 68.75,-1.517 97.38,-2.6c4.11,-0.155 12.03,30.331 19.84,27.741c3.26,-1.083 4.46,-2.499 3.12,-6.16c-9.4,-25.63 -18.61,-51.328 -27.85,-77.014c-0.84,-2.341 -1.49,-4.753 -2.11,-7.506c0.09,-0.281 0.1,-0.336 0.1,-0.346l-0,-0.002c-0,0 -0,-0.001 -0,0l-0,0.002c7.49,7.514 48.37,58.88 63.92,75.019c3.31,3.432 8.33,3.703 11.52,1.611c3.33,-2.181 -4.17,-7.044 -0,-13.345c3.58,0 22.02,-0.149 25.57,0c28.95,1.218 57.93,2.044 86.85,3.881c22.75,1.446 45.43,4.064 68.13,6.346c11.38,1.144 58.01,-37.914 60.94,-44.756c4.99,-11.632 9.54,-23.448 14.19,-35.224c27.22,-69.019 60.01,-135.461 93.5,-201.567c41.63,-82.172 85.25,-163.276 131.81,-242.772c5.73,-9.773 11.85,-19.312 17.81,-28.948c0.24,-0.397 0.68,-0.672 1.96,-1.883c-0.13,2.707 -0.06,4.537 -0.33,6.316c-6.5,42.788 -13.19,85.546 -19.49,128.361c-5.04,34.227 -9.63,68.522 -14.4,102.789c-4.22,30.313 -8.49,60.619 -12.58,90.948c-3.9,28.849 -7.66,57.715 -11.36,86.589c-3.63,28.382 -7.21,56.772 -10.63,85.181c-2.81,23.388 -5.5,46.794 -7.98,70.22c-0.11,1.058 -4.97,37.919 -5.13,39.249c-0.61,5.149 -0.33,10.256 -6.74,12.999c0.88,1.828 1.65,3.425 2.43,5.012c8.47,17.172 16.99,34.315 25.4,51.52c15.19,31.13 30.48,62.219 45.43,93.471c15.04,31.459 26.46,64.316 36.1,97.77c6.88,23.837 12.83,47.944 14.42,72.821c0.5,7.85 -0.12,15.81 -0.79,23.67c-0.54,6.29 1.53,11.25 6.38,14.81c4.89,3.58 10.99,4.92 15.95,1.27c10.46,-7.7 22.74,-10.34 34.75,-13.16c28.98,-6.82 58.17,-12.7 87.29,-18.88c3.71,-0.78 3.14,-0.73 11.93,-1.46c7.2,-1.25 14.26,-1.99 21.28,-2.87c3.27,-0.41 6.56,-0.69 10.13,-0.37c-2.8,1.62 -5.53,3.37 -8.4,4.85c-30.86,15.98 -61.85,31.71 -92.57,47.95c-13.92,7.36 -27.31,15.71 -40.92,23.65c-0.81,0.46 -3.2,2.31 -2.11,2.56c10.19,2.42 20.38,6.86 30.57,6.85c26.35,-0.02 50.98,8.3 76.23,13.41c25.61,5.19 50.99,11.51 76.42,17.55c25.27,6 75.88,18.7 75.88,18.7c-0,0 8.14,1.79 11.92,2.74c-0,0.53 -0,1.06 -0.01,1.58c-28.73,5.87 -57.42,11.98 -86.21,17.53c-20.5,3.95 -41.1,7.47 -61.74,10.6c-19,2.89 -38.08,5.32 -57.2,7.34c-11.8,1.26 -23.73,1.18 -35.58,2.11c-5.75,0.45 -11.4,2.1 -17.16,2.76c-8.52,0.98 -13.91,5.24 -16.4,13.33c-0.16,0.5 -0.57,2.52 -0.55,2.99c0.02,0.4 0.03,0.89 0.01,1.51c0.19,1.22 0.48,1.78 0.78,2.34c1.53,6.55 6.28,10.29 11.7,13.49c20.33,11.97 40.66,23.97 60.97,35.98c1.42,0.84 5.79,4.38 6.44,4.54c6.02,3.62 12.04,7.23 18.07,10.85c-0.17,0.39 -0.33,0.78 -0.49,1.18c-7.65,-1.53 -15.32,-2.96 -22.94,-4.61c-35.66,-7.7 -71.31,-15.5 -106.98,-23.16c-6.3,-1.36 -12.68,-2.9 -19.07,-3.14c-8.54,-0.33 -18.44,10.56 -20.67,13.19c-0.22,0.26 -0.5,0.94 -0.52,1.07c-3,20.28 -12.88,37.94 -21.67,55.98c-3.41,6.99 -7.54,13.64 -12.03,20.62c-16.16,25.09 -16.58,27.03 -25.31,40.18c-1.09,1.65 -4.26,2.27 -6.59,2.69c-28.57,5.25 -57.12,10.55 -85.74,15.46c-24.36,4.18 -48.8,7.89 -73.21,11.79c-4.85,0.78 -9.72,1.52 -15.76,2.46c8.78,-16.85 25.4,-48.36 25.4,-48.36c-0,0 16.64,-38.13 23.99,-57.41c13.19,-34.63 20.73,-70.92 30.18,-106.64c2.93,-11.1 6.02,-22.18 8.4,-33.41c0.84,-3.93 2.7,-4.95 6.06,-5.76c10.49,-2.53 21.35,-4.29 31.27,-8.33c24.33,-9.9 47.595,-22.775 63.31,-44.23c10.432,-14.242 20.25,-29.6 24.7,-40.24c13.66,-32.75 14.71,-65.381 -2.85,-97.259c-10.37,-18.822 -26.01,-32.37 -44.57,-42.623c-28.9,-15.96 -60.2,-23.952 -92.84,-27.235c-5.46,-0.549 -10.97,-0.623 -16.43,-1.198c-1.37,-0.143 -3.17,-1.048 -3.84,-2.162c-6.8,-11.392 -12.66,-23.413 -20.21,-34.268c-15.42,-22.166 -33.62,-41.794 -56.73,-56.334c-25.81,-16.246 -54.37,-21.65 -84.26,-19.617c-63.05,4.288 -119.4,28.322 -172.81,60.42c-5.11,3.069 -9.74,6.993 -14.32,10.842c-1.99,1.673 -3.23,1.993 -5.53,0.521c-48.61,-31.067 -102.38,-47.777 -158.94,-56.253c-42.47,-6.365 -84.98,-6.498 -127.24,2.136c-26.03,5.319 -50.67,14.05 -71.97,30.671c-16,12.479 -26.9,28.937 -37.01,46.077c-0.94,1.578 -2.21,3.053 -2.73,4.758c-3.05,9.903 -10.19,12.973 -19.91,13.404c-16.55,0.732 -31.44,6.904 -46.54,13.603c-20.9,9.275 -37.89,23.243 -52.08,40.24c-7.89,9.462 -13.06,21.63 -17.74,33.267c-11.16,27.74 -15.59,56.54 -8.41,86.11c9.04,37.22 32.04,63.96 64.88,82.29c12.57,7.01 26.37,11.84 39.72,17.39c2.77,1.15 3.71,2.21 3.56,5.32c-1.48,30.17 -1.74,60.28 4.6,90.06c6.96,32.69 21.7,61.8 41.1,88.67c8.48,11.74 26.33,34.69 26.33,34.69l0.19,0.31c-0,0 38.45,39.61 60.05,56.88c-12.29,-1.68 -24.59,-3.3 -36.86,-5.06c-20.2,-2.9 -40.42,-5.61 -60.55,-8.9c-29.14,-4.77 -58.21,-9.94 -87.27,-15.14c-2.09,-0.37 -4.29,-1.98 -5.76,-3.62c-8.97,-10.03 -26.73,-30.68 -26.73,-30.68l-0.14,-0.29c-0,0 -48.36,-68.92 -66.53,-107.11c-0.95,-1.98 -1.7,-3.71 1.67,-4.97c1.68,-1.53 4.05,-4.98 4.61,-5.73c0.03,-0.11 0.07,-0.21 0.1,-0.31c-0.78,-4.19 -0.75,-8.65 -1.86,-12.8c-1.05,-3.96 -6.56,-6.68 -10.45,-5.95c-10.91,2.05 -21.9,3.82 -32.7,6.38c-11.91,2.82 -23.71,6.21 -35.46,9.69c-31.06,9.23 -62.06,18.68 -93.12,27.96c-17.51,5.24 -53,15.35 -53,15.35l-0.4,-0.1c-0,0 -15.53,6.39 -23.3,9.58c-0.24,-0.35 -0.48,-0.71 -0.72,-1.06c0.61,-0.8 1.07,-1.79 1.84,-2.37c29.54,-22.06 60.97,-41.08 93.32,-58.72c16.2,-8.84 31.89,-18.62 47.81,-27.96c4.94,-2.9 8.68,-6.81 11.23,-12.41c0.19,-0.41 0.61,-2.51 0.55,-3.02c-0.56,-4.27 -0.33,-8.66 -4.27,-12.22c-3.84,-3.47 -8.07,-5.27 -13,-5.35c-33.08,-0.51 -65.97,-3.55 -98.72,-7.97c-35.82,-4.84 -71.59,-10.06 -107.37,-15.21c-6.21,-0.89 -12.34,-2.26 -19.81,-3.65c2.55,-1.77 6.39,-4.2 6.39,-4.2l0.36,-0.01c-0,0 112.36,-53 172.29,-70.33c13.4,-3.88 26.75,-7.9 40.07,-12.03Z" style="fill:#d61c12;fill-rule:nonzero;stroke:#000;stroke-width:1px;"/></g><g><path d="M227.22,572.134c-0.57,-1.29 -0.76,-2.76 -0.84,-4.48c-1.49,-34.06 0.83,-67.93 5.24,-101.66c12.81,-97.94 39.58,-191.93 80.71,-281.73c8.72,-19.04 19.09,-37.33 29.19,-56.04c-0.01,8.22 -0.66,16.5 -0.96,24.79c-1.06,29.11 -2.2,58.23 -2.93,87.36c-0.64,25.64 -0.79,51.3 -1.11,76.95c-0.34,28.32 3.94,258.25 3.41,270.71c-0.93,21.85 -9.05,60.27 -8.78,60.36c-0.76,2.43 -12.47,60.65 -13.58,60c-31.22,-18.36 -56.97,-46.3 -71.39,-79.24c-0.23,-0.53 -17.21,-51.62 -18.96,-57.02Z" style="fill:#fecb63;fill-rule:nonzero;"/></g><g><path d="M626.335,961.82c-4.714,-0.8 -5.085,-4.71 -5.309,-7.74c-0.421,-5.72 0.939,-11.25 5.005,-15.721c2.543,-2.797 6.027,-4.072 8.836,-1.67c1.794,1.534 3.128,5.421 2.493,7.621c-1.496,5.19 -4.137,10.09 -6.676,14.92c-0.645,1.23 -2.64,1.74 -4.349,2.59Z" style="fill:#f2f2f2;fill-rule:nonzero;"/></g><g><path d="M1278.85,934.463c-0.39,8.057 -4.61,13.677 -10.66,17.777c-3.89,2.64 -6.25,0.75 -6.08,-4.01c0.24,-6.624 1.84,-12.433 8.34,-15.737c3.24,-1.644 6.02,-1.523 8.4,1.97Z" style="fill:#f3f3f3;fill-rule:nonzero;"/></g><g><path d="M1225.87,1230.16c6.43,6.94 12.03,15.75 12.39,25.5c0.36,9.68 -4.6,18.74 -10.13,26.28c-10.9,14.85 -28.61,26.24 -47.64,24.94c-21.43,-1.45 -49.51,-7.07 -70.48,-11.37c-32.9,-6.74 -68.75,-14.19 -100.96,-23.82c-16.95,-5.07 -33.2,-15.3 -51.48,-15.51c-73.027,-0.82 -139.457,36.95 -211.708,42.51c-15.516,1.2 -37.666,3.68 -52.065,-5.68c-6.837,-4.45 -12.765,-10.16 -19.081,-15.32c-9.334,-7.62 -19.586,-13.55 -19.476,-26.86c0.048,-5.8 3.717,-23.25 13.592,-19.28c15.62,6.28 19.732,23.84 32.015,33.88c9.241,7.55 37.934,5.44 43.111,5.24c28.228,-1.09 59.131,-9.6 85.525,-15.65c42.035,-9.64 83.902,-20 125.977,-29.46c2.76,-0.62 5.64,-1 8.46,-0.75c14.43,1.27 25.9,11.46 38.77,16.73c10.36,4.25 21.07,7.65 31.8,10.88c44.67,13.41 91.13,19.9 137.46,24.1c4.49,0.41 9.1,0.05 13.46,-1.09c4.36,-1.13 8.39,-3.36 12.29,-5.61c2.48,-1.44 4.64,-3.39 6.71,-5.37c8.98,-8.62 -6.34,-18.34 -7.7,-26.78c-1.55,-9.57 9.22,-16.43 17.71,-14.7c4.98,1.01 7.78,4.11 11.45,7.19Z" style="fill:#050402;fill-rule:nonzero;"/></g><g><path d="M907.919,1138.54c-5.007,-12.12 -1.292,-17.89 11.538,-19.89c15.373,-2.39 30.673,-4.01 46.133,-0.97c9.31,1.84 15.12,8.32 15.17,17.07c0.04,7.7 -5.48,13.47 -15.13,15.08c-12.13,2.03 -24.28,4.11 -36.5,5.41c-12.722,1.35 -19.432,-4.23 -21.211,-16.7Z" style="fill:#070503;fill-rule:nonzero;"/></g></g></svg>