<svg xmlns="http://www.w3.org/2000/svg" viewBox="0 0 608 711">
<defs>
<linearGradient id="b" x1="0" x2="1" y1="0" y2="-.46" gradientTransform="matrix(-252.364 -370.366 142.753 -654.744 241.989 670.137)" gradientUnits="userSpaceOnUse">
<stop offset="0" style="stop-color:#fff;stop-opacity:0.1"/>
<stop offset=".2" stop-color="#e2e993" stop-opacity="0.2"/>
<stop offset=".8" stop-color="#a2cd39" stop-opacity="0.2"/>
<stop offset="1" stop-color="#8cc63f" stop-opacity="0.2"/>
</linearGradient>
<linearGradient id="greenStops">
<stop offset="0" stop-color="#dfe895" stop-opacity="0.1" />
<stop offset=".1" stop-color="#cbdf78" stop-opacity="0.1" />
<stop offset=".4" stop-color="#a0c93b" stop-opacity="0.1" />
<stop offset="1" stop-color="#6bb544" stop-opacity="0.1" />
</linearGradient>
<linearGradient id="d" href="#greenStops" x1="0" x2="1" y1="0" y2="-.219" gradientTransform="matrix(-235.847 -205.953 157.741 -307.932 281.88 436.721)" gradientUnits="userSpaceOnUse"/>
<linearGradient id="f" href="#greenStops" x1="0" x2="1" y1="0" y2="-.097" gradientTransform="matrix(-235.843 -175.998 157.738 -263.145 332.442 361.137)" gradientUnits="userSpaceOnUse"/>
<linearGradient id="h" href="#greenStops" x1="0" x2="1" y1="0" y2="-.008" gradientTransform="matrix(-235.85 -159.187 157.743 -238.008 251.258 482.484)" gradientUnits="userSpaceOnUse"/>
<linearGradient id="j" href="#greenStops" x1="0" x2="1" y1="0" y2=".012" gradientTransform="matrix(-235.853 -155.766 157.745 -232.894 202.608 555.24)" gradientUnits="userSpaceOnUse"/>
</defs>
<path d="M380.492 238.965c0-75.682 61.181-137.035 136.672-137.035 18.259 0 35.675 3.619 51.591 10.135C447.877.518 259.436 3.368 142.07 120.73 28.345 234.458 22.161 414.93 123.395 536.002c26.257-34.384 62.194-74.062 106.335-105.081 34.465-24.222 82.275-48.456 120.697-52.072 36.396-3.425 90.559.081 123.353 15.835-25.647-26.3-52.688-55.791-65.925-73.441-17.182-22.91-27.363-51.397-27.363-82.278Z" style="fill:url(#b);fill-rule:nonzero"/>
<path d="M370.758 339.146 226.317 60.918c-26.69 12.844-51.903 29.772-74.737 50.762l218.237 227.116.941.35Z" style="fill:url(#d);fill-rule:nonzero"/>
<path d="m371.533 339.44 19.09-307.325a309.601 309.601 0 0 0-75.028 1.647l55.65 305.565.288.113Z" style="fill:url(#f);fill-rule:nonzero"/>
<path d="M369.817 338.796 72.236 228.24c-10.116 26.412-16.45 53.934-19.025 81.737l317.362 29.616-.756-.797Z" style="fill:url(#h);fill-rule:nonzero"/>
<path d="M55.077 382.905a307.793 307.793 0 0 0 16.156 63.232l298.5-105.766-314.656 42.534Z" style="fill:url(#j);fill-rule:nonzero"/>
<path d="M117.645 611.312c-8.94-7.819-24.287-22.297-38.006-40.019-62.916-70.584-134.769-255.697-15.203-423.61 49.353-69.24 120.159-115.831 190.478-134.731a349.028 349.028 0 0 1 347.772 95.897c6.422 6.963 5.516 15.831.628 19.925-7.159 6.016-13.6 2.891-28.028-1.297-22.478-6.522-41.831-8.062-62.634-5.412-48.194 6.15-89.935 50.837-84.141 113.253 5.284 56.994 49.212 98.147 80.075 125.337 108.375 95.441 72.122 197.738 63.294 220.216-29.972 76.3-106.763 130.109-206.329 130.109-41.349 0-101.099-10.721-161.149-48.793-2.325-1.028-4.61-4.138-1.779-9.254 4.585-11.603 23.763-45.446 32.044-55.218 29.834 34.506 80.206 66.965 136.163 69.012 76.484 2.797 125.772-38.603 143.843-91.137 20.307-59.019-1.281-119.172-58.453-173.456-49.275-46.785-93.225-90.094-95.797-164.313-3.262-95.066 79.519-151.531 156.416-147.756 2.344.119-106.316-78.269-245.781-31.591-68.263 22.891-109.119 63.172-128.731 86.088-2.91 3.562-1.066 6.256-.072 7.681 2.184 3.119 49.572 69.238 49.572 69.238l-85.497-19.66s-3.566-.856-5.328 2.056c-27.185 46.869-67.238 182.372 22.203 305.804 0 0 76.172-120.673 227.453-130.951 10.059-.678 8.784 2.922 2.175 5.319-135.128 49.66-188.447 148.76-222.891 225.181-2.115 4.728-7.725 6.122-12.297 2.082Z"
style="fill:#00477fff;fill-rule:nonzero"/>
</svg>